<svg xmlns="http://www.w3.org/2000/svg" viewBox="0 0 256 256" width="256" height="256">
  <defs>
    <linearGradient id="bg" x1="0" y1="0" x2="0" y2="1">
      <stop offset="0%"  stop-color="#1a1c24"/>
      <stop offset="100%" stop-color="#0a0b10"/>
    </linearGradient>
    <linearGradient id="ledger" x1="0" y1="0" x2="0" y2="1">
      <stop offset="0%"  stop-color="#3a2f1a"/>
      <stop offset="100%" stop-color="#1f1810"/>
    </linearGradient>
    <linearGradient id="page" x1="0" y1="0" x2="0" y2="1">
      <stop offset="0%"  stop-color="#f1d68c"/>
      <stop offset="100%" stop-color="#c79a4a"/>
    </linearGradient>
    <radialGradient id="coin" cx="0.5" cy="0.4" r="0.6">
      <stop offset="0%"  stop-color="#fff3b8"/>
      <stop offset="55%" stop-color="#f4c452"/>
      <stop offset="100%" stop-color="#a36b1a"/>
    </radialGradient>
    <linearGradient id="accent" x1="0" y1="0" x2="1" y2="0">
      <stop offset="0%"  stop-color="#ffd166"/>
      <stop offset="100%" stop-color="#c79a4a"/>
    </linearGradient>
  </defs>

  <rect x="0" y="0" width="256" height="256" rx="44" ry="44" fill="url(#bg)"/>
  <rect x="0" y="0" width="256" height="256" rx="44" ry="44" fill="none" stroke="#806224" stroke-width="3" opacity="0.85"/>

  <g transform="translate(36 52)">
    <rect x="0" y="0" width="184" height="148" rx="10" ry="10" fill="url(#ledger)" stroke="#5a4520" stroke-width="2"/>
    <rect x="10" y="12" width="164" height="124" rx="6" ry="6" fill="url(#page)"/>
    <line x1="10" y1="38"  x2="174" y2="38"  stroke="#7a5a26" stroke-width="1.6" opacity="0.7"/>
    <line x1="10" y1="60"  x2="174" y2="60"  stroke="#7a5a26" stroke-width="1.2" opacity="0.5"/>
    <line x1="10" y1="80"  x2="174" y2="80"  stroke="#7a5a26" stroke-width="1.2" opacity="0.5"/>
    <line x1="10" y1="100" x2="174" y2="100" stroke="#7a5a26" stroke-width="1.2" opacity="0.5"/>
    <line x1="10" y1="120" x2="174" y2="120" stroke="#7a5a26" stroke-width="1.2" opacity="0.5"/>
    <rect x="30" y="20" width="60" height="10" rx="3" ry="3" fill="#5a4520"/>
    <rect x="100" y="20" width="48" height="10" rx="3" ry="3" fill="#5a4520" opacity="0.7"/>
    <circle cx="22" cy="70"  r="3" fill="#7a5a26"/>
    <circle cx="22" cy="90"  r="3" fill="#7a5a26"/>
    <circle cx="22" cy="110" r="3" fill="#7a5a26"/>
  </g>

  <g transform="translate(176 156)">
    <circle cx="0" cy="0" r="44" fill="#000" opacity="0.35"/>
    <circle cx="0" cy="-2" r="42" fill="url(#coin)" stroke="#7a5217" stroke-width="3"/>
    <circle cx="0" cy="-2" r="34" fill="none" stroke="#a3741f" stroke-width="1.5" opacity="0.6"/>
    <text x="0" y="9" text-anchor="middle" font-family="Georgia, 'Times New Roman', serif"
          font-size="44" font-weight="700" fill="#5a3a0c">A</text>
  </g>

  <rect x="36" y="208" width="184" height="3" rx="1.5" ry="1.5" fill="url(#accent)" opacity="0.9"/>
</svg>
